<svg width="96" height="96" viewBox="0 0 96 96" fill="none" xmlns="http://www.w3.org/2000/svg">
  <path d="M48 8L78 20V44C78 63.3 65.3 79.9 48 88C30.7 79.9 18 63.3 18 44V20L48 8Z" fill="#0F172A"/>
  <path d="M48 14L72 23V43C72 59.3 61.7 73.2 48 80.1C34.3 73.2 24 59.3 24 43V23L48 14Z" fill="#10B981"/>
  <path d="M48 22L64 28V42C64 54 56.6 64.5 48 69.9C39.4 64.5 32 54 32 42V28L48 22Z" fill="#0B1220"/>
  <path d="M48 29L57 32.4V41C57 48.2 52.7 54.8 48 58.4C43.3 54.8 39 48.2 39 41V32.4L48 29Z" fill="#E5E7EB"/>
</svg>
